#N canvas 0 0 1015 713 10;
#X obj 123 50 metro 100;
#X obj 44 15 tgl 15 0 empty empty empty 0 -6 0 8 #fcfcfc #000000 #000000 0 1;
#X text 67 14 on/off;
#X obj 162 651 dac~;
#X obj 155 450 *~ 0.1;
#X obj 123 180 brown_abs;
#X floatatom 129 230 5 0 0 0 - - - 0;
#X floatatom 196 231 5 0 0 0 - - - 0;
#X floatatom 263 230 5 0 0 0 - - - 0;
#X floatatom 327 231 5 0 0 0 - - - 0;
#X floatatom 391 231 5 0 0 0 - - - 0;
#X obj 123 208 + 120;
#X obj 30 311 sel 0;
#X obj 423 556 loadbang;
#X floatatom 454 231 5 0 0 0 - - - 0;
#X floatatom 519 231 8 0 0 0 - - - 0;
#X msg 835 308 \; pd dsp 1 \;;
#X obj 838 187 hsl 128 15 0 100 0 0 vol volr volume -2 6 0 8 #14e814 #000000 #fc2828 0 1;
#X obj 9 258 dbtorms;
#X obj 140 287 tgl 15 0 empty empty empty 0 -6 0 8 #fcfcfc #000000 #000000 0 1;
#X obj 124 368 *~;
#X obj 203 287 tgl 15 0 empty empty empty 0 -6 0 8 #fcfcfc #000000 #000000 0 1;
#X obj 187 370 *~;
#X obj 395 287 tgl 15 0 empty empty empty 0 -6 0 8 #fcfcfc #000000 #000000 0 1;
#X obj 380 368 *~;
#X obj 267 291 tgl 15 0 empty empty empty 0 -6 0 8 #fcfcfc #000000 #000000 0 1;
#X obj 251 371 *~;
#X obj 334 289 tgl 15 0 empty empty empty 0 -6 0 8 #fcfcfc #000000 #000000 0 1;
#X obj 319 369 *~;
#X obj 459 292 tgl 15 0 empty empty empty 0 -6 0 8 #fcfcfc #000000 #000000 0 1;
#X obj 444 372 *~;
#X obj 524 294 tgl 15 0 empty empty empty 0 -6 0 8 #fcfcfc #000000 #000000 0 1;
#X obj 509 371 *~;
#X obj 140 337 line;
#X msg 140 312 \$1 500;
#X msg 203 313 \$1 500;
#X obj 203 339 line;
#X msg 267 316 \$1 500;
#X obj 267 341 line;
#X msg 334 313 \$1 500;
#X obj 334 338 line;
#X msg 395 312 \$1 500;
#X obj 395 335 line;
#X msg 459 315 \$1 500;
#X obj 459 339 line;
#X msg 524 317 \$1 500;
#X obj 524 342 line;
#X floatatom 585 232 8 0 0 0 - - - 0;
#X obj 591 294 tgl 15 0 empty empty empty 0 -6 0 8 #fcfcfc #000000 #000000 0 1;
#X obj 576 372 *~;
#X msg 591 317 \$1 500;
#X obj 591 342 line;
#X obj 37 399 line;
#X msg 37 374 \$1 500;
#X floatatom 31 456 5 0 0 0 - - - 0;
#X msg 30 345 0;
#X msg 61 345 0.01;
#N canvas 45 83 590 601 fft 0;
#X obj 19 62 inlet~;
#X obj 85 214 inlet;
#X obj 19 92 rfft~;
#X obj 19 125 *~;
#X obj 50 125 *~;
#X obj 19 155 sqrt~;
#X obj 332 109 block~ 4096 1;
#X obj 19 181 biquad~ 0 0 0 0 1;
#X text 83 93 Fourier series;
#X text 88 146 magnitude;
#X text 86 131 calculate;
#X text 21 3 This subpatch computes the spectrum of the incoming signal with a (rectangular windowed) FFT. FFTs aren't properly introduced until much later.;
#X text 83 62 signal to analyze;
#X text 182 166 delay two samples;
#X text 181 182 for better graphing;
#X text 135 216 "bang" into this inlet to graph it;
#X obj 85 248 tabwrite~ drunk_waves;
#X connect 0 0 2 0;
#X connect 1 0 16 0;
#X connect 2 0 3 0;
#X connect 2 0 3 1;
#X connect 2 1 4 0;
#X connect 2 1 4 1;
#X connect 3 0 5 0;
#X connect 4 0 5 0;
#X connect 5 0 7 0;
#X connect 7 0 16 0;
#X restore 558 573 pd fft;
#N canvas 0 0 450 300 (subpatch) 0;
#X array drunk_waves 128 float 0;
#X coords 0 40 127 -20 257 130 1;
#X restore 733 457 graph;
#X text 829 404 SPECTRUM;
#X obj 558 542 *~ 0.5;
#X msg 591 512 0;
#X msg 591 486 1;
#X obj 610 543 metro 50;
#X obj 188 208 + 240;
#X obj 253 208 + 480;
#X obj 318 208 + 960;
#X obj 381 208 + 1920;
#X obj 445 208 + 3860;
#X obj 508 208 + 660;
#X obj 575 208 + 640;
#X text 624 484 <- graph on;
#X text 624 510 <- graph off;
#X msg 835 344 \; pd dsp 0 \;;
#X obj 123 257 osc~;
#X obj 188 259 osc~;
#X obj 252 259 osc~;
#X obj 318 260 osc~;
#X obj 381 260 osc~;
#X obj 445 260 osc~;
#X obj 508 260 osc~;
#X obj 575 260 osc~;
#X obj 634 15 vsl 12 64 30 50 0 0 bfreq bfreqr Base_frequency 0 -8 0 8 #fc2828 #e8e828 #000000 0 1;
#X obj 701 102 t f f f f f f f f;
#X floatatom 730 29 5 0 0 0 - - - 0;
#X obj 9 231 r vol;
#X text 219 21 a bank of brown noise driven oscillator frequencies. AZ 2007;
#X text 628 291 <- play with these;
#X text 220 3 drunk oscillators;
#X obj 161 506 cross-delay-gop;
#X obj 188 181 brown_abs;
#X obj 253 181 brown_abs;
#X obj 318 181 brown_abs;
#X obj 381 181 brown_abs;
#X obj 445 181 brown_abs;
#X obj 508 181 brown_abs;
#X obj 575 181 brown_abs;
#X obj 835 15 bng 15 250 50 0 empty empty empty 0 -6 0 8 #fcfcfc #000000 #000000;
#X obj 835 46 s reset;
#X text 868 13 reset brown;
#X obj 697 127 * 2;
#X obj 723 127 * 4;
#X obj 753 127 * 8;
#X obj 781 127 * 16;
#X obj 809 127 * 32;
#X obj 838 127 * 64;
#X obj 867 127 * 128;
#X obj 341 433 loadbang;
#X msg 434 463 0.8;
#X msg 336 464 80;
#X msg 369 464 160;
#X msg 300 465 0.7;
#X msg 402 465 0.2;
#X msg 423 594 \; volr 60 \; bfreqr 40 \;;
#X text 515 433 TURN OFF THE GRAPH;
#X text 514 454 BEFORE CLOSING THE PATCH!;
#X text 758 313 1 ->;
#X text 143 14 <- 2;
#X text 534 483 3 ->;
#N canvas 0 0 638 360 OSrecorder 0;
#X msg 59 215 start;
#X msg 59 256 stop;
#X obj 114 266 writesf~ 2;
#X obj 110 72 inlet~;
#X obj 185 71 inlet~;
#X text 15 255 3) ->;
#X text 15 214 2) ->;
#X text 265 240 <- 1) open the file on which to record;
#X text 265 224 <- 0) edit it first to set the desired filename;
#X msg 123 234 open DrunkSines.wav;
#X connect 0 0 2 0;
#X connect 1 0 2 0;
#X connect 3 0 2 0;
#X connect 4 0 2 1;
#X connect 9 0 2 0;
#X restore 41 627 pd OSrecorder;
#X connect 0 0 5 0;
#X connect 0 0 90 0;
#X connect 0 0 91 0;
#X connect 0 0 92 0;
#X connect 0 0 93 0;
#X connect 0 0 94 0;
#X connect 0 0 95 0;
#X connect 0 0 96 0;
#X connect 1 0 0 0;
#X connect 1 0 19 0;
#X connect 1 0 21 0;
#X connect 1 0 25 0;
#X connect 1 0 27 0;
#X connect 1 0 23 0;
#X connect 1 0 29 0;
#X connect 1 0 31 0;
#X connect 1 0 48 0;
#X connect 1 0 12 0;
#X connect 4 0 89 0;
#X connect 4 0 60 0;
#X connect 4 0 89 1;
#X connect 5 0 11 0;
#X connect 11 0 6 0;
#X connect 11 0 74 0;
#X connect 12 0 55 0;
#X connect 12 1 56 0;
#X connect 13 0 113 0;
#X connect 18 0 53 0;
#X connect 19 0 34 0;
#X connect 20 0 4 0;
#X connect 21 0 35 0;
#X connect 22 0 4 0;
#X connect 23 0 41 0;
#X connect 24 0 4 0;
#X connect 25 0 37 0;
#X connect 26 0 4 0;
#X connect 27 0 39 0;
#X connect 28 0 4 0;
#X connect 29 0 43 0;
#X connect 30 0 4 0;
#X connect 31 0 45 0;
#X connect 32 0 4 0;
#X connect 33 0 20 1;
#X connect 34 0 33 0;
#X connect 35 0 36 0;
#X connect 36 0 22 1;
#X connect 37 0 38 0;
#X connect 38 0 26 1;
#X connect 39 0 40 0;
#X connect 40 0 28 1;
#X connect 41 0 42 0;
#X connect 42 0 24 1;
#X connect 43 0 44 0;
#X connect 44 0 30 1;
#X connect 45 0 46 0;
#X connect 46 0 32 1;
#X connect 48 0 50 0;
#X connect 49 0 4 0;
#X connect 50 0 51 0;
#X connect 51 0 49 1;
#X connect 52 0 4 1;
#X connect 52 0 54 0;
#X connect 53 0 52 0;
#X connect 55 0 53 0;
#X connect 56 0 53 0;
#X connect 60 0 57 0;
#X connect 61 0 63 0;
#X connect 62 0 63 0;
#X connect 63 0 57 1;
#X connect 64 0 7 0;
#X connect 64 0 75 0;
#X connect 65 0 8 0;
#X connect 65 0 76 0;
#X connect 66 0 9 0;
#X connect 66 0 77 0;
#X connect 67 0 10 0;
#X connect 67 0 78 0;
#X connect 68 0 14 0;
#X connect 68 0 79 0;
#X connect 69 0 15 0;
#X connect 69 0 80 0;
#X connect 70 0 47 0;
#X connect 70 0 81 0;
#X connect 74 0 20 0;
#X connect 75 0 22 0;
#X connect 76 0 26 0;
#X connect 77 0 28 0;
#X connect 78 0 24 0;
#X connect 79 0 30 0;
#X connect 80 0 32 0;
#X connect 81 0 49 0;
#X connect 82 0 83 0;
#X connect 82 0 84 0;
#X connect 83 0 11 1;
#X connect 83 1 100 0;
#X connect 83 2 101 0;
#X connect 83 3 102 0;
#X connect 83 4 103 0;
#X connect 83 5 104 0;
#X connect 83 6 105 0;
#X connect 83 7 106 0;
#X connect 85 0 18 0;
#X connect 89 0 3 0;
#X connect 89 0 119 0;
#X connect 89 1 3 1;
#X connect 89 1 119 1;
#X connect 90 0 64 0;
#X connect 91 0 65 0;
#X connect 92 0 66 0;
#X connect 93 0 67 0;
#X connect 94 0 68 0;
#X connect 95 0 69 0;
#X connect 96 0 70 0;
#X connect 97 0 98 0;
#X connect 100 0 64 1;
#X connect 101 0 65 1;
#X connect 102 0 66 1;
#X connect 103 0 67 1;
#X connect 104 0 68 1;
#X connect 105 0 69 1;
#X connect 106 0 70 1;
#X connect 107 0 111 0;
#X connect 107 0 109 0;
#X connect 107 0 110 0;
#X connect 107 0 112 0;
#X connect 107 0 108 0;
#X connect 108 0 89 6;
#X connect 109 0 89 3;
#X connect 110 0 89 4;
#X connect 111 0 89 2;
#X connect 112 0 89 5;
